#!OML:ASF X:\für Bonn\!DataBase\2005_08_11_Bastian_Final\c3d\Bastian.ASF
:FULLY-SPECIFIED
:DEGREES
136
root 0.0930743 16.3346 6.79492 176.557 -11.2052 -179.197
lowerback 22.2726 -2.20932 1.72616
upperback 6.65443 -3.6733 0.864749
thorax -5.16508 -2.30915 0.95125
lowerneck -12.4101 -4.5472 -1.56472
upperneck -9.41177 -6.90516 9.5532
head -0.476371 -3.99406 3.10496
rclavicle 1.51573e-014 -1.3418e-014
rhumerus 69.4291 14.9683 -2.7072
rradius 39.2096
rwrist -48.1669
rhand -46.1625 -5.53777
rfingers 7.12502
rthumb -18.902 -34.6394
lclavicle 1.51573e-014 -1.3418e-014
lhumerus 70.9082 -17.5581 -8.15367
lradius 31.1829
lwrist 8.18267
lhand -45.4151 17.2585
lfingers 7.12502
lthumb -18.183 46.4286
rfemur -25.1434 -9.73427 23.875
rtibia 63.6959
rfoot -24.2259 -6.83508
rtoes 2.29264
lfemur -23.8515 -0.942748 -18.7235
ltibia 57.2321
lfoot -19.9527 -8.80398
ltoes -9.23896
137
root 0.0885587 16.4776 6.76127 176.687 -11.3048 -179.345
lowerback 21.654 -2.22239 1.50393
upperback 6.55279 -3.70338 0.808809
thorax -4.95297 -2.30356 0.99131
lowerneck -12.2814 -4.57389 -1.58223
upperneck -9.22081 -6.91422 9.54372
head -0.43422 -3.97986 3.10298
rclavicle 2.69105e-014 -2.04748e-014
rhumerus 69.4427 15.3947 -1.92801
rradius 39.5653
rwrist -49.4571
rhand -46.1397 -5.68731
rfingers 7.12502
rthumb -18.8801 -34.791
lclavicle 2.69105e-014 -2.04748e-014
lhumerus 71.1409 -18.0975 -8.01939
lradius 31.1037
lwrist 8.41994
lhand -45.3429 17.0593
lfingers 7.12502
lthumb -18.1135 46.2359
rfemur -23.8478 -9.34014 23.7314
rtibia 61.4426
rfoot -23.9219 -7.22328
rtoes 2.69776
lfemur -22.3755 -1.30607 -18.892
ltibia 54.5164
lfoot -19.1609 -8.51474
ltoes -9.08342
138
root 0.0840757 16.6112 6.72684 176.813 -11.389 -179.535
lowerback 21.0458 -2.22212 1.22045
upperback 6.44001 -3.72448 0.763077
thorax -4.75211 -2.29379 1.07544
lowerneck -12.1494 -4.61088 -1.70191
upperneck -9.01001 -6.9224 9.58512
head -0.380193 -3.96065 3.13655
rclavicle -6.43317e-014 2.60408e-014
rhumerus 69.4689 15.8646 -1.27801
rradius 39.8807
rwrist -50.7039
rhand -46.0865 -5.80916
rfingers 7.12502
rthumb -18.8289 -34.9179
lclavicle -6.43317e-014 2.60408e-014
lhumerus 71.374 -18.6944 -7.94942
lradius 31.0446
lwrist 8.64086
lhand -45.278 16.9566
lfingers 7.12502
lthumb -18.0511 46.1389
rfemur -22.5949 -8.91796 23.5556
rtibia 59.2855
rfoot -23.6578 -7.63916
rtoes 2.85054
lfemur -20.9144 -1.64098 -19.1072
ltibia 51.8463
lfoot -18.3337 -8.20615
ltoes -9.01075
139
root 0.0792236 16.7351 6.69169 176.939 -11.4799 -179.727
lowerback 20.4168 -2.23443 0.964757
upperback 6.32501 -3.75417 0.689372
thorax -4.54412 -2.28809 1.11475
lowerneck -12.0509 -4.64344 -1.73277
upperneck -8.77339 -6.93841 9.55545
head -0.318303 -3.94629 3.12801
rclavicle 2.89729e-014 -1.58531e-014
rhumerus 69.4956 16.3952 -0.718942
rradius 40.1566
rwrist -51.9625
rhand -46.0827 -5.74359
rfingers 7.12502
rthumb -18.8252 -34.8526
lclavicle 2.89729e-014 -1.58531e-014
lhumerus 71.719 -19.326 -8.37848
lradius 31.063
lwrist 9.08356
lhand -45.2603 17.0443
lfingers 7.12502
lthumb -18.0342 46.2282
rfemur -21.3813 -8.47761 23.3815
rtibia 57.2157
rfoot -23.4053 -8.08015
rtoes 3.24226
lfemur -19.5075 -1.97418 -19.3328
ltibia 49.2546
lfoot -17.5242 -7.88241
ltoes -9.17782
